<svg width="16.000000" height="16.000000" viewBox="0 0 16 16" fill="none" xmlns="http://www.w3.org/2000/svg" xmlns:xlink="http://www.w3.org/1999/xlink">
	<desc>
			Created with Pixso.
	</desc>
	<defs>
		<clipPath id="clip9621_357">
			<rect id="icon/filled/suggested/exclamation-circle" rx="0.000000" width="15.000000" height="15.000000" transform="translate(0.500000 0.500000)" fill="white" fill-opacity="0"/>
		</clipPath>
	</defs>
	<rect id="icon/filled/suggested/exclamation-circle" rx="0.000000" width="15.000000" height="15.000000" transform="translate(0.500000 0.500000)" fill="#FFFFFF" fill-opacity="0"/>
	<g clip-path="url(#clip9621_357)">
		<path id="Vector" d="M8 1C4.13 1 1 4.13 1 8C1 11.86 4.13 15 8 15C11.86 15 15 11.86 15 8C15 4.13 11.86 1 8 1ZM7.5 4.62C7.5 4.55 7.55 4.5 7.62 4.5L8.37 4.5C8.44 4.5 8.5 4.55 8.5 4.62L8.5 8.87C8.5 8.94 8.44 9 8.37 9L7.62 9C7.55 9 7.5 8.94 7.5 8.87L7.5 4.62ZM8 11.5C7.8 11.49 7.61 11.41 7.47 11.27C7.34 11.13 7.26 10.94 7.26 10.75C7.26 10.55 7.34 10.36 7.47 10.22C7.61 10.08 7.8 10 8 10C8.19 10 8.38 10.08 8.52 10.22C8.65 10.36 8.73 10.55 8.73 10.75C8.73 10.94 8.65 11.13 8.52 11.27C8.38 11.41 8.19 11.49 8 11.5Z" fill="#FAAD14" fill-opacity="1.000000" fill-rule="nonzero"/>
	</g>
</svg>
